<svg xmlns="http://www.w3.org/2000/svg" viewBox="0 0 36 36" x="0px" y="0px">
    <g>
        <path d="M5.35309,12.00284H20.64417a3.353,3.353,0,0,1,3.353,3.353V30.647A3.353,3.353,0,0,1,20.64423,34H5.35315a3.35309,3.35309,0,0,1-3.35309-3.35309v-15.291A3.353,3.353,0,0,1,5.35309,12.00284Z"/>
        <path d="M30.64691,2H15.3559a3.36147,3.36147,0,0,0-3.35309,3.35309v4.647H20.6441a5.36862,5.36862,0,0,1,5.35584,5.35578v8.64129h4.647a3.36136,3.36136,0,0,0,3.353-3.353V5.35312A3.36142,3.36142,0,0,0,30.64691,2Z"/>
    </g>
</svg>