<svg xmlns="http://www.w3.org/2000/svg" viewBox="0 0 24 24" fill="none" x="0px" y="0px">
    <path fill-rule="evenodd" clip-rule="evenodd" d="M8 1.5C8.55229 1.5 9 1.94772 9 2.5V3H15V2.5C15 1.94772 15.4477 1.5 16 1.5C16.5523 1.5 17 1.94772 17 2.5V3.00602C17.496 3.01377 17.9366 3.03151 18.3248 3.07207C19.0442 3.14724 19.6964 3.3095 20.2764 3.71093C20.6721 3.98482 21.0152 4.32787 21.2891 4.7236C21.6905 5.30361 21.8528 5.9558 21.9279 6.67523C21.9685 7.06323 21.9862 7.50371 21.994 7.99944C22.0013 8.46752 22.005 8.70155 21.8581 8.85078C21.7112 9 21.4739 9 20.9995 9H3.00053C2.52608 9 2.28885 9 2.14194 8.85078C1.99504 8.70155 1.9987 8.46751 2.00603 7.99944C2.01379 7.50371 2.03153 7.06323 2.07207 6.67523C2.14724 5.9558 2.3095 5.30361 2.71093 4.7236C2.98482 4.32787 3.32787 3.98482 3.7236 3.71093C4.30361 3.3095 4.9558 3.14724 5.67523 3.07207C6.06337 3.03151 6.50405 3.01377 7 3.00602V2.5C7 1.94772 7.44772 1.5 8 1.5ZM2 15.0706L2 12C2 11.5286 2 11.2929 2.14645 11.1464C2.29289 11 2.5286 11 3 11H21C21.4714 11 21.7071 11 21.8536 11.1464C22 11.2929 22 11.5286 22 12L22 15.0705C22 16.4246 22.0001 17.5413 21.8813 18.4251C21.7565 19.3529 21.4845 20.1723 20.8284 20.8284C20.1723 21.4845 19.3529 21.7565 18.4251 21.8813C17.5413 22.0001 16.4247 22 15.0706 22H8.92946C7.57536 22 6.45869 22.0001 5.57494 21.8813C4.64711 21.7565 3.82769 21.4845 3.17158 20.8284C2.51547 20.1723 2.2435 19.3529 2.11876 18.4251C1.99994 17.5413 1.99997 16.4247 2 15.0706Z" fill="black"/>
</svg>