<svg xmlns="http://www.w3.org/2000/svg"
    xmlns:xlink="http://www.w3.org/1999/xlink" version="1.1" x="0px" y="0px" viewBox="0 0 100 100" enable-background="new 0 0 100 100" xml:space="preserve">
    <path d="M13.8,65.9c3-2.7,7.3-1.5,7.3,3.7v12.5c0,3.8,3.1,6.9,6.9,6.9h8.8h3.8c5-0.1,6.1-4.4,3.5-7.4c-4.4-5-2-12.6,5.9-12.9  c8,0.3,10.3,8,5.9,12.9c-2.6,3-1.5,7.3,3.5,7.4h3.4h9.1c0,0,0,0,0,0h0.1c3.7,0,6.7-3,6.7-6.7V69.6c0-5.2,4.3-6.3,7.3-3.7  c5,4.4,12.6,2,12.9-5.9c-0.3-8-7.9-10.3-12.8-5.9c-3,2.7-7.4,1.5-7.4-3.7V38c0-3.7-3-6.7-6.7-6.7H59.5c-5.2,0-6.3-4.4-3.7-7.4  c4.4-5,2-12.6-5.9-12.9c-8,0.3-10.3,8-5.9,12.9c2.7,3,1.5,7.4-3.7,7.4H27.8c-3.7,0-6.7,3-6.7,6.7v12.4c0,5.2-4.2,6.3-7.2,3.7  c-5-4.4-12.5-2-12.9,5.9C1.3,68,8.9,70.3,13.8,65.9z"/>
</svg>