<svg xmlns="http://www.w3.org/2000/svg" viewBox="0 0 32 32" x="0px" y="0px">
    <g>
        <path d="M3.21973,8.29a.99942.99942,0,0,1,1-1H5.82214a3.13548,3.13548,0,0,1,5.89576,0H27.78027a1,1,0,1,1,0,2H11.71655a3.129,3.129,0,0,1-5.89312,0H4.21973A.99942.99942,0,0,1,3.21973,8.29ZM27.78027,22.71H14.84442a3.13526,3.13526,0,0,0-5.89874,0H4.21973a1,1,0,0,0,0,2H8.94989a3.12923,3.12923,0,0,0,5.8902,0H27.78027A1.0001,1.0001,0,0,0,27.78027,22.71Zm0-7.71H25.56439a3.13526,3.13526,0,0,0-5.8988,0H4.21973a1,1,0,1,0,0,2H19.66992A3.12917,3.12917,0,0,0,25.56,17h2.22027A1.0001,1.0001,0,0,0,27.78027,15Z"/>
    </g>
</svg>