<svg xmlns="http://www.w3.org/2000/svg" data-name="Layer 1" viewBox="0 0 93 93" x="0px" y="0px">
    <path class="cls-1" d="M71.21,42.094A20.3,20.3,0,1,0,50.9,21.792a20.322,20.322,0,0,0,20.307,20.3ZM5.184,91.511H38.363a3.692,3.692,0,0,0,3.685-3.692V54.641a3.692,3.692,0,0,0-3.685-3.692H5.184A3.694,3.694,0,0,0,1.49,54.641V87.819a3.694,3.694,0,0,0,3.694,3.692Zm0-49.438H38.363a3.692,3.692,0,0,0,3.685-3.691V5.2a3.692,3.692,0,0,0-3.685-3.691H5.184A3.694,3.694,0,0,0,1.49,5.2v33.18a3.694,3.694,0,0,0,3.694,3.691ZM87.8,91.511a3.7,3.7,0,0,0,3.693-3.692V54.641A3.7,3.7,0,0,0,87.8,50.949H54.621a3.7,3.7,0,0,0-3.694,3.692V87.819a3.7,3.7,0,0,0,3.694,3.692Z"/>
</svg>