<svg
    id="Layer_1"
    data-name="Layer 1"
    xmlns="http://www.w3.org/2000/svg"
    xmlns:xlink="http://www.w3.org/1999/xlink"
    width="18.25"
    height="19.95"
    viewBox="0 0 18.25 19.95"
>
    <path
    d="M17.41,4.35,10.06.23a1.86,1.86,0,0,0-1.8,0L.92,4.35A1.71,1.71,0,0,0,0,5.85v8.24a1.73,1.73,0,0,0,.9,1.51l7.34,4.12a1.84,1.84,0,0,0,1.79,0L17.4,15.6a1.69,1.69,0,0,0,.89-1.5V5.86A1.71,1.71,0,0,0,17.41,4.35Zm-1.74,8.28a1.71,1.71,0,0,1-.9,1.5L10,16.78a1.86,1.86,0,0,1-1.8,0L3.51,14.13a1.69,1.69,0,0,1-.89-1.5V7.8l4.2,2.34a2.17,2.17,0,0,0,.68,1.42,2.39,2.39,0,0,0,3.29,0,2.21,2.21,0,0,0,0-3.19,2.34,2.34,0,0,0-1.65-.67,2.29,2.29,0,0,0-1,.23L4,5.58,8.26,3.17a1.86,1.86,0,0,1,1.8,0l4.73,2.65a1.71,1.71,0,0,1,.9,1.5Z"
    transform="translate(-0.04 0)"
    class="fill-harlequin-300 transition ease"
    />
</svg>