<svg version="1.1" id="Layer_1"
    xmlns="http://www.w3.org/2000/svg"
    xmlns:xlink="http://www.w3.org/1999/xlink" x="0px" y="0px" width="700pt" viewBox="0 0 700 700" xml:space="preserve">
    <path xmlns="http://www.w3.org/2000/svg" d="m559.11 73.781c-2.9219-4.3516-8.5234-6.0195-13.352-3.9805l-400.02 168.69c-3.9414 1.6641-6.5508 5.4648-6.6914 9.7383-0.14062 4.2734 2.2188 8.2383 6.043 10.152l150.49 75.402 75.773 151.23c1.8594 3.7188 5.6562 6.0469 9.793 6.0469 0.11719 0 0.24219 0 0.35938-0.003906 4.2734-0.14062 8.0742-2.7539 9.7383-6.6914l168.33-399.18c1.9492-3.5273 1.8828-7.9297-0.46094-11.406zm-56.453 37.977-200.7 200.7-125.79-63.02zm-122.36 342.18-63.027-125.79 200.7-200.7z" />
</svg> 