<svg class="text-slate-400" xmlns="http://www.w3.org/2000/svg" viewBox="0 0 64 64" x="0px" y="0px">
    <path d="m58.17999,26.84998l-3.81-1.65002c-.26001-.12-.46997-.34998-.56-.62988-.32001-.96008-.70001-1.88013-1.13-2.7301-.13-.28992-.14996-.57996-.04999-.83997l1.52997-3.87c.44-1.10999.19-2.37-.65997-3.23999l-3.40002-3.39001c-.85999-.8501-2.12-1.1001-3.21997-.66003l-3.88,1.53003c-.26001.09998-.56.07996-.82001-.04004-.83997-.43005-1.76996-.80994-2.75-1.15002-.28998-.08997-.50995-.28992-.62-.54993l-1.65997-3.80994c-.46002-1.1001-1.54004-1.82007-2.75-1.82007h-4.79999c-1.21002,0-2.29004.71997-2.75,1.81006l-1.66003,3.81995c-.10999.26001-.33002.45996-.63.54993-.96997.34009-1.89996.71997-2.71997,1.14014-.29004.13989-.58002.1499-.84003.04993l-3.87-1.53003c-1.10999-.44006-2.37-.19006-3.23999.66003l-3.39001,3.3999c-.84998.86011-1.09998,2.12012-.65997,3.22009l1.52997,3.88c.10004.26001.08002.55005-.03998.82007-.41998.83984-.81,1.75989-1.15002,2.75-.08997.28992-.28998.50989-.54999.61987l-3.81,1.66003c-1.09998.46008-1.82001,1.54004-1.82001,2.75v4.79993c0,1.21008.72003,2.29004,1.81,2.75l3.82001,1.66016c.26001.10986.46002.32996.54999.62988.34003.97998.73004,1.90002,1.14001,2.71997.13.29004.15002.58008.04999.84009l-1.52997,3.88c-.44,1.09998-.19,2.35999.65997,3.22998l3.40002,3.39001c.85999.84998,2.12,1.09998,3.21997.65991l3.88-1.52991c.26001-.09998.56-.07996.82001.03992.84003.43005,1.77002.81006,2.75,1.15015.28998.08984.51001.28992.62.54993l1.66003,3.80994c.45996,1.1001,1.53998,1.82007,2.75,1.82007h4.79999c1.20996,0,2.28998-.71997,2.75-1.81006l1.65997-3.81995c.11005-.26001.33002-.46008.63-.54993.97003-.34009,1.90002-.72009,2.71997-1.14014.29004-.12988.58002-.1499.84003-.04993l3.87,1.52991c1.10999.44006,2.37.19006,3.23999-.65991l3.39001-3.40002c.84998-.85999,1.09998-2.12.65997-3.21997l-1.52997-3.88c-.09998-.26001-.08002-.55005.03998-.82007.44-.86987.82001-1.78992,1.14001-2.75.09003-.28003.29999-.51001.54999-.61987l3.82001-1.66016c1.10004-.45996,1.82001-1.53992,1.82001-2.75v-4.79993c0-1.20996-.71002-2.27991-1.82001-2.75Zm-12.96997,5.15002c0,7.28003-5.92999,13.20996-13.21002,13.20996-17.52719-.74015-17.52204-25.68245.00009-26.41995,7.27994.00003,13.20993,5.92996,13.20993,13.20999Z"/>
</svg>